<svg id="Capa_1" enable-background="new 0 0 511.904 511.904" height="512" viewBox="0 0 511.904 511.904" width="512" xmlns="http://www.w3.org/2000/svg"><g><g><g><path d="m424.928 427.498h-337.953v-268.289c0-87.893 71.252-159.145 159.145-159.145h19.663c87.893 0 159.145 71.252 159.145 159.145z" fill="#e2e9ee"/><path d="m265.783.064h-9.831v427.434h168.976v-268.289c0-87.894-71.251-159.145-159.145-159.145z" fill="#bbd0d5"/></g><g><g><path d="m317.429 176.685h-122.955c-8.284 0-15-6.716-15-15s6.716-15 15-15h122.955c8.284 0 15 6.716 15 15s-6.715 15-15 15z" fill="#98b6be"/><path d="m317.429 146.685h-61.477v30h61.477c8.284 0 15-6.716 15-15s-6.715-15-15-15z" fill="#738da3"/></g><g><path d="m317.429 236.685h-122.955c-8.284 0-15-6.716-15-15s6.716-15 15-15h122.955c8.284 0 15 6.716 15 15s-6.715 15-15 15z" fill="#98b6be"/><path d="m317.429 206.685h-61.477v30h61.477c8.284 0 15-6.716 15-15s-6.715-15-15-15z" fill="#738da3"/></g><g><path d="m317.429 296.685h-122.955c-8.284 0-15-6.716-15-15s6.716-15 15-15h122.955c8.284 0 15 6.716 15 15s-6.715 15-15 15z" fill="#98b6be"/><path d="m317.429 266.685h-61.477v30h61.477c8.284 0 15-6.716 15-15s-6.715-15-15-15z" fill="#738da3"/></g></g></g><g><g><path d="m480.184 448.555h-448.464v-48.528c0-8.284 6.716-15 15-15h418.464c8.284 0 15 6.716 15 15z" fill="#bbd0d5"/><path d="m465.184 385.027h-209.232v73.529l224.231-10v-48.529c.001-8.284-6.715-15-14.999-15z" fill="#98b6be"/></g><g><path d="m511.904 511.84h-511.904v-48.285c0-8.284 6.716-15 15-15h481.904c8.284 0 15 6.716 15 15z" fill="#e2e9ee"/><path d="m496.904 448.555h-240.952v63.285h255.951v-48.285c.001-8.284-6.715-15-14.999-15z" fill="#bbd0d5"/></g></g></g></svg>