<svg height="512" viewBox="0 0 128 128" width="512" xmlns="http://www.w3.org/2000/svg"><g><g><path d="m64 18.123s-3.7 11.084-35.728 14.777v33.328a43.341 43.341 0 0 0 22.728 38.153 69.917 69.917 0 0 0 13 5.5 69.917 69.917 0 0 0 13-5.5 43.341 43.341 0 0 0 22.728-38.153v-33.328c-32.028-3.693-35.728-14.777-35.728-14.777z" fill="#9ef9f3"/><path d="m64 102.648a65.5 65.5 0 0 1 -9.731-4.323 36.412 36.412 0 0 1 -19.115-32.1v-27.374c7.987-1.366 20.846-4.361 28.846-10.296 8 5.935 20.859 8.93 28.846 10.3v27.373a36.413 36.413 0 0 1 -19.114 32.1 65.55 65.55 0 0 1 -9.732 4.32z" fill="#65f7ec"/><path d="m82.5 58.537h-13.037v-13.037h-10.926v13.037h-13.037v10.926h13.037v13.037h10.926v-13.037h13.037z" fill="#ff4547"/></g><g fill="#680000"><path d="m41.849 32.318a1.745 1.745 0 0 0 .409-.049q.681-.164 1.334-.331a1.75 1.75 0 0 0 -.873-3.39q-.626.162-1.277.318a1.75 1.75 0 0 0 .407 3.452z"/><path d="m99.928 31.159c-30.09-3.466-34.241-13.522-34.268-13.59a1.758 1.758 0 0 0 -3.308-.033c-.019.048-1.946 4.835-12.923 8.931a1.75 1.75 0 1 0 1.223 3.279c7.679-2.865 11.5-6.124 13.355-8.371a21.83 21.83 0 0 0 4.885 4.215c6.51 4.27 16.29 7.248 29.086 8.859v31.78a41.536 41.536 0 0 1 -21.809 36.612 68.814 68.814 0 0 1 -12.169 5.206 68.814 68.814 0 0 1 -12.169-5.206 41.536 41.536 0 0 1 -21.809-36.612v-31.781c1.873-.236 3.691-.5 5.425-.8a1.75 1.75 0 0 0 -.585-3.451c-2.147.364-4.431.687-6.79.959a1.749 1.749 0 0 0 -1.55 1.738v33.335a45.035 45.035 0 0 0 23.646 39.692 71.689 71.689 0 0 0 13.332 5.632 1.747 1.747 0 0 0 1.006 0 71.689 71.689 0 0 0 13.329-5.632 45.035 45.035 0 0 0 23.646-39.692v-33.329a1.749 1.749 0 0 0 -1.553-1.741z"/><path d="m79.565 92.1q-.4.36-.814.707a1.75 1.75 0 1 0 2.249 2.681q.454-.382.9-.778a1.75 1.75 0 0 0 -2.335-2.61z"/><path d="m83.975 90.171a1.751 1.751 0 0 0 2.458-.3 38.429 38.429 0 0 0 8.167-23.642v-27.378a1.751 1.751 0 0 0 -1.455-1.725c-7.115-1.216-20.221-4.126-28.103-9.976a1.746 1.746 0 0 0 -2.084 0c-7.882 5.85-20.988 8.76-28.099 9.976a1.751 1.751 0 0 0 -1.459 1.725v27.378a38.159 38.159 0 0 0 20.037 33.636 67.413 67.413 0 0 0 9.993 4.435 1.757 1.757 0 0 0 1.14 0 67.367 67.367 0 0 0 9.993-4.438 1.75 1.75 0 1 0 -1.663-3.08 64.563 64.563 0 0 1 -8.9 4.009 64.563 64.563 0 0 1 -8.9-4.009 34.662 34.662 0 0 1 -18.2-30.553v-25.91c8.513-1.553 19.493-4.433 27.1-9.619 7.607 5.184 18.587 8.064 27.1 9.617v25.91a34.909 34.909 0 0 1 -7.415 21.484 1.75 1.75 0 0 0 .29 2.46z"/><path d="m84.25 69.463v-10.926a1.75 1.75 0 0 0 -1.75-1.75h-11.287v-11.287a1.75 1.75 0 0 0 -1.75-1.75h-10.926a1.75 1.75 0 0 0 -1.75 1.75v11.287h-11.287a1.75 1.75 0 0 0 -1.75 1.75v10.926a1.75 1.75 0 0 0 1.75 1.75h11.287v11.287a1.75 1.75 0 0 0 1.75 1.75h10.926a1.75 1.75 0 0 0 1.75-1.75v-6.833a1.75 1.75 0 0 0 -3.5 0v5.083h-7.426v-11.287a1.751 1.751 0 0 0 -1.75-1.75h-11.287v-7.426h11.287a1.751 1.751 0 0 0 1.75-1.75v-11.287h7.426v11.287a1.751 1.751 0 0 0 1.75 1.75h11.287v7.426h-11.287a1.75 1.75 0 0 0 0 3.5h13.037a1.75 1.75 0 0 0 1.75-1.75z"/></g></g></svg>